# xmcd
#
# Track frame offsets:
#	150
#	13144
#	26452
#	40960
#	55835
#	70502
#	84739
#	101778
#	118937
#	132131
#	146005
#	163248
#	176229
#	187817
#	202459
#	215683
#
# Disc length: 3118 seconds
#
# Revision: 1
# Processed by: cddbd v1.5.1PL0 Copyright (c) Steve Scherf et al.
# Submitted via: audiograbber 1.82.02
#
DISCID=f40c2c10
DTITLE=George Hamilton IV - Waitin' for the sun to shine
DYEAR=2003
DGENRE=Country
TTITLE0=Me And The Elephant
TTITLE1=Waitin' For The Sun To Shine
TTITLE2=Castles In The Air
TTITLE3=Bunch Of Thyme
TTITLE4=Mull Of Kintyre
TTITLE5=The Way Old Friends Do
TTITLE6=When We Are Gone (I Will Love You)
TTITLE7=When I Dream
TTITLE8=Song For A Winter's Night
TTITLE9=Lucille
TTITLE10=I Believe In You
TTITLE11=Only Love
TTITLE12=Teach Your Children
TTITLE13=Four Strong Winds
TTITLE14=Blue Eyes Crying In The Rain
TTITLE15=England
EXTD=excellent!
EXTT0=
EXTT1=
EXTT2=
EXTT3=
EXTT4=
EXTT5=
EXTT6=
EXTT7=
EXTT8=
EXTT9=
EXTT10=
EXTT11=
EXTT12=
EXTT13=
EXTT14=
EXTT15=
PLAYORDER=
